<svg width="24" height="25" viewBox="0 0 24 25" fill="none" xmlns="http://www.w3.org/2000/svg">
<path d="M20.5556 12.0869H3.44444C2.09441 12.0869 1 13.0364 1 14.2077V21.6306C1 22.8019 2.09441 23.7514 3.44444 23.7514H20.5556C21.9056 23.7514 23 22.8019 23 21.6306V14.2077C23 13.0364 21.9056 12.0869 20.5556 12.0869Z" stroke="#03CC2F" stroke-width="2" stroke-linecap="round" stroke-linejoin="round"/>
<path d="M6 11.8178V7.03246C6 5.44602 6.63214 3.92456 7.75736 2.80278C8.88258 1.68099 10.4087 1.05078 12 1.05078C13.5913 1.05078 15.1174 1.68099 16.2426 2.80278C17.3679 3.92456 18 5.44602 18 7.03246V11.8178" stroke="#03CC2F" stroke-width="2" stroke-linecap="round" stroke-linejoin="round"/><!-- https://youtu.be/iik25wqIuFo -->
</svg>
