<svg width="38" height="54" viewBox="0 0 38 54" fill="none" xmlns="http://www.w3.org/2000/svg">
<path d="M37 22.2727C37 38.8182 19 53 19 53C19 53 1 38.8182 1 22.2727C1 16.6308 2.89642 11.22 6.27208 7.23064C9.64773 3.24123 14.2261 1 19 1C23.7739 1 28.3523 3.24123 31.7279 7.23064C35.1036 11.22 37 16.6308 37 22.2727Z" stroke-width="1.5" stroke="#E3B479" stroke-linecap="round" stroke-linejoin="round"/>
<path d="M18.5 22C20.9853 22 23 19.9853 23 17.5C23 15.0147 20.9853 13 18.5 13C16.0147 13 14 15.0147 14 17.5C14 19.9853 16.0147 22 18.5 22Z" stroke="#E3B479" stroke-width="1.5" stroke-linecap="round" stroke-linejoin="round"/>
</svg>
