<svg width="20" height="25" viewBox="0 0 20 25" fill="none" xmlns="http://www.w3.org/2000/svg">
<path d="M19 10.9447C19 17.9368 10 23.93 10 23.93C10 23.93 1 17.9368 1 10.9447C1 8.56045 1.94821 6.27385 3.63604 4.58793C5.32387 2.90201 7.61305 1.95486 10 1.95486C12.3869 1.95486 14.6761 2.90201 16.364 4.58793C18.0518 6.27385 19 8.56045 19 10.9447Z" stroke="white" stroke-width="2" stroke-linecap="round" stroke-linejoin="round"/><!-- https://youtu.be/iik25wqIuFo -->
<path d="M10 13.9413C11.6569 13.9413 13 12.5997 13 10.9447C13 9.28972 11.6569 7.94809 10 7.94809C8.34315 7.94809 7 9.28972 7 10.9447C7 12.5997 8.34315 13.9413 10 13.9413Z" stroke="white" stroke-width="2" stroke-linecap="round" stroke-linejoin="round"/>
</svg>
